# xmcd
#
# Track frame offsets:
#	150
#	8510
#	42272
#	81807
#	117157
#	142870
#	177522
#
# Disc length: 2482 seconds
#
# Revision: 1
# Processed by: cddbd v1.5.1PL0 Copyright (c) Steve Scherf et al.
# Submitted via: CDex 1.50Beta5
#
DISCID=4c09b007
DTITLE=Song Collection - Xazsa
DYEAR=1900
DGENRE=Soundtrack
TTITLE0=The Number Of Yours
TTITLE1=Blind Rain
TTITLE2=Slient Stream
TTITLE3=銀の少年
TTITLE4=天使たちの行進
TTITLE5=Alone In The Light
TTITLE6=Scene Sampling On Rainy Day
EXTD=
EXTT0=
EXTT1=
EXTT2=
EXTT3=
EXTT4=
EXTT5=
EXTT6=
PLAYORDER=
